<svg version="1.1" id="Layer_1" xmlns="http://www.w3.org/2000/svg" xmlns:xlink="http://www.w3.org/1999/xlink" x="0px" y="0px" width="1200px" height="1200px" viewBox="0 0 1200 1200" enable-background="new 0 0 1200 1200" xml:space="preserve">
<g>
	<path fill="#FFFFFF" d="M1110.09,862.652l1.994-7.283c25.306-92.387-16.877-185.942-94.961-217.769&#10;&#9;&#9;c-8.944-44.006-24.94-86.785-47.823-126.93c-56.546-99.211-148.349-170.465-258.484-200.631&#10;&#9;&#9;c-37.04-10.145-75.116-15.288-113.176-15.288c-123.547,0-237.734,53.699-316.995,141.358c-6.783-0.922-13.623-1.394-20.476-1.394&#10;&#9;&#9;c-77.561,0-147.574,57.847-170.256,140.665l-1.997,7.289c-24.646,89.983,14.727,181.074,88.934,215.164&#10;&#9;&#9;c8.507,47.282,25.107,93.273,49.6,136.245c56.546,99.21,148.341,170.461,258.485,200.627&#10;&#9;&#9;C521.973,1144.857,560.051,1150,598.11,1150c126.602,0,243.417-56.353,322.839-147.894c6.262,0.782,12.566,1.22,18.886,1.22&#10;&#9;&#9;c0.004,0,0.004,0,0.004,0S1058.259,1021.676,1110.09,862.652z M183.076,618.865c0.604-3.504,1.339-7.004,2.298-10.494l1.483-5.442&#10;&#9;&#9;c1.286-4.69,2.915-9.215,4.775-13.59c-2.175,6.629-4.237,13.31-6.093,20.091C184.675,612.569,183.864,615.715,183.076,618.865z" style="fill: rgb(255, 255, 255);"/>
	<path fill="#572C87" d="M210.789,616.346c58.556-213.778,279.329-339.613,493.107-281.054&#10;&#9;&#9;c213.784,58.552,339.617,279.325,281.06,493.105c-58.559,213.776-279.331,339.617-493.107,281.056&#10;&#9;&#9;C278.065,1050.906,152.239,830.127,210.789,616.346z"/>
	<path d="M293.94,642.797c45.975-164.43,217.707-261.656,383.578-217.163c165.862,44.493,263.054,213.859,217.078,378.288&#10;&#9;&#9;c-45.976,164.432-217.714,261.664-383.584,217.169C345.148,976.599,247.962,807.231,293.94,642.797z"/>
	<g>
		<defs>
			<path id="SVGID_1_" d="M293.682,646.021c44.961-164.153,214.481-260.773,378.638-215.812&#10;&#9;&#9;&#9;&#9;c164.146,44.963,260.774,214.483,215.812,378.636C843.17,973,673.646,1069.624,509.489,1024.663&#10;&#9;&#9;&#9;&#9;C345.339,979.698,248.719,810.176,293.682,646.021z"/>
		</defs>
		<clipPath id="SVGID_2_">
			<use xlink:href="#SVGID_1_" overflow="visible"/>
		</clipPath>
		<g clip-path="url(#SVGID_2_)">
			<polygon fill="#572C87" points="355.088,439.916 914.978,593.275 908.033,618.624 348.15,465.265 &#9;&#9;&#9;"/>
			<path fill="#572C87" d="M889.455,517.341c5.684,4.006,10.687,8.775,15.246,14.011c3.207,6.355,6.536,12.641,9.959,18.873&#10;&#9;&#9;&#9;&#9;L414.661,413.269c12.464-4.876,24.548-10.516,35.392-17.551l437.342,119.793C888.042,516.138,888.66,516.776,889.455,517.341z"/>
			
				<rect x="270.448" y="582.946" transform="matrix(-0.9645 -0.2642 0.2642 -0.9645 1047.265 1333.0042)" fill="#572C87" width="685.627" height="26.28"/>
			
				<rect x="248.992" y="661.288" transform="matrix(-0.9645 -0.2642 0.2642 -0.9645 984.4131 1481.2352)" fill="#572C87" width="685.623" height="26.277"/>
			
				<rect x="227.532" y="739.624" transform="matrix(-0.9645 -0.2642 0.2642 -0.9645 921.5631 1629.4553)" fill="#572C87" width="685.625" height="26.278"/>
			
				<rect x="206.078" y="817.962" transform="matrix(-0.9645 -0.2642 0.2642 -0.9645 858.7158 1777.6851)" fill="#572C87" width="685.621" height="26.282"/>
			<path fill="#572C87" d="M229.566,814.228l631.972,173.1l-0.591,2.141c-1.608,0.727-3.177,1.803-4.663,3.294&#10;&#9;&#9;&#9;&#9;c-5.105,5.106-10.325,10.535-15.67,16.085L242.677,845.066C238.515,834.685,234.112,824.426,229.566,814.228z"/>
			<path fill="#572C87" d="M272.563,910.219l521.488,142.847c-7.895,6.258-16.087,11.927-24.627,16.609&#10;&#9;&#9;&#9;&#9;c-1.974,0.741-3.921,1.529-5.889,2.279L286.06,941.168C281.711,930.786,277.239,920.453,272.563,910.219z"/>
		</g>
	</g>
	<path fill="#572C87" d="M993.061,657.011l-45.391-12.431v42.684l22.036,6.037c56.216,15.395,87.636,79.544,70.178,143.278&#10;&#9;&#9;l-1.494,5.453c-17.458,63.732-77.179,102.912-133.395,87.517l-25.052-6.861v42.681l26.656,7.302&#10;&#9;&#9;c75.118,20.57,154.914-31.78,178.237-116.934l1.996-7.285C1110.158,763.298,1068.176,677.585,993.061,657.011z"/>
	<path fill="#572C87" d="M293.4,465.368c-75.114-20.574-154.914,31.78-178.237,116.936l-1.996,7.283&#10;&#9;&#9;c-23.326,85.159,18.661,170.867,93.775,191.443l38.222,10.469v-42.686l-14.871-4.073c-56.216-15.397-87.632-79.544-70.178-143.276&#10;&#9;&#9;l1.493-5.453c15.742-57.466,65.844-94.953,116.755-90.489v-14.06h45.152v-15.937h6.965L293.4,465.368z"/>
	<path fill="#FFFFFF" d="M875.615,112.471c-5.269-12.838-12.689-24.105-22.078-33.506c-9.598-9.586-21.302-16.945-34.803-21.872&#10;&#9;&#9;C805.831,52.385,791.748,50,776.881,50c-31.223,0-56.955,9.692-76.489,28.804c-12.78,12.5-21.393,27.764-25.916,45.505&#10;&#9;&#9;c-4.203-13.78-10.7-26.046-19.413-36.419c-9.113-10.836-20.485-19.387-33.822-25.423c-13.172-5.942-28.52-8.954-45.616-8.954&#10;&#9;&#9;h-63.238c-5.728,0-14.318,1.762-22.715,10.16c-8.382,8.395-10.143,16.977-10.143,22.698v54.119&#10;&#9;&#9;c-0.913-5.167-1.997-10.244-3.423-15.11c-4.194-14.231-10.848-26.84-19.79-37.489c-9.109-10.836-20.483-19.387-33.826-25.423&#10;&#9;&#9;c-13.168-5.942-28.518-8.954-45.613-8.954h-63.238c-5.73,0-14.314,1.762-22.713,10.16c-8.387,8.395-10.147,16.977-10.147,22.698&#10;&#9;&#9;v312.684c0,7.029,2.506,13.769,7.4,19.977c6.001,7.662,14.329,11.882,23.455,11.882h89.337c14.549,0,27.564-2.942,38.682-8.74&#10;&#9;&#9;c10.95-5.699,20.137-13.505,27.309-23.213c5.158-6.993,9.355-14.85,12.57-23.413v23.508c0,7.029,2.504,13.769,7.398,19.977&#10;&#9;&#9;c5.997,7.662,14.326,11.882,23.453,11.882h89.335c14.549,0,27.569-2.942,38.684-8.74c10.948-5.699,20.133-13.505,27.308-23.213&#10;&#9;&#9;c5.538-7.508,9.929-16.041,13.219-25.344c3.434,8.421,7.91,16.477,13.481,24.114c10.299,14.346,23.853,24.577,40.275,30.414&#10;&#9;&#9;c14.524,5.169,29.395,7.789,44.2,7.789h2.224c1,2.055,1.959,4.131,2.86,6.204c1.822,4.184,3.593,8.001,5.266,11.352&#10;&#9;&#9;c7.489,14.958,19.826,16.573,24.783,16.573c2.348,0,5.43-0.18,10.018-0.595c4.853-0.443,9.838-1.326,14.822-2.623&#10;&#9;&#9;c5.298-1.386,10.192-3.191,14.528-5.362c10.382-5.188,16.578-14.645,16.578-25.287c0-4.449-0.908-9.266-2.885-15.212&#10;&#9;&#9;c-1.455-4.345-3.315-8.891-5.527-13.53c-0.697-1.462-1.405-2.902-2.112-4.315c7.109-7.59,12.744-16.267,16.831-25.951&#10;&#9;&#9;c6.143-14.519,9.255-29.96,9.255-45.888V155.129C883.524,139.638,880.865,125.29,875.615,112.471z M474.319,252.3&#10;&#9;&#9;c-3.686-7.168-8.088-13.901-13.107-20.053c4.94-5.902,8.933-12.31,11.942-19.186c2.786-6.366,4.898-13.077,6.374-20.072v70.89&#10;&#9;&#9;C477.995,259.944,476.253,256.075,474.319,252.3z M659.961,232.248c4.355-5.203,7.927-10.823,10.787-16.786v32.598&#10;&#9;&#9;C667.574,242.471,663.971,237.169,659.961,232.248z" style="fill: rgb(255, 255, 255);"/>
	<g>
		<path fill="#572C87" d="M465.21,332.804c0,10.037-1.339,19.658-4.017,28.861c-2.679,9.207-6.605,17.314-11.789,24.341&#10;&#9;&#9;&#9;c-5.197,7.029-11.795,12.634-19.83,16.815c-8.029,4.186-17.564,6.273-28.607,6.273h-89.337c-2.347,0-4.438-1.167-6.277-3.514&#10;&#9;&#9;&#9;c-1.845-2.337-2.758-4.516-2.758-6.525V86.371c0-2.337,1.252-4.766,3.767-7.276c2.504-2.511,4.934-3.762,7.274-3.762h63.238&#10;&#9;&#9;&#9;c14.053,0,26.266,2.343,36.64,7.024c10.372,4.688,19.072,11.215,26.099,19.572c7.031,8.368,12.213,18.244,15.562,29.613&#10;&#9;&#9;&#9;c3.339,11.382,5.017,23.762,5.017,37.142c0,13.049-2.343,24.929-7.025,35.635c-4.692,10.713-12.723,19.911-24.09,27.605&#10;&#9;&#9;&#9;c5.349,3.684,10.202,8.116,14.553,13.299c4.345,5.192,8.105,10.876,11.293,17.064c3.174,6.198,5.684,12.636,7.527,19.324&#10;&#9;&#9;&#9;c1.834,6.696,2.76,13.223,2.76,19.574V332.804z M399.964,157.642c0-7.355-1.754-14.218-5.266-20.578&#10;&#9;&#9;&#9;c-3.512-6.353-9.461-9.535-17.822-9.535c-2.006,0-4.349,1.089-7.023,3.26c-2.682,2.18-4.018,4.44-4.018,6.777v58.22&#10;&#9;&#9;&#9;c0,2.682,1.51,5.19,4.519,7.527c3.012,2.347,5.853,3.516,8.531,3.516c8.361,0,13.971-2.843,16.814-8.535&#10;&#9;&#9;&#9;c2.84-5.684,4.266-12.208,4.266-19.572V157.642z M401.972,306.707c0-3.679-0.174-8.283-0.5-13.803&#10;&#9;&#9;&#9;c-0.334-5.521-1.256-10.789-2.764-15.81c-1.506-5.02-3.849-9.285-7.027-12.799c-3.184-3.512-7.448-5.268-12.797-5.268&#10;&#9;&#9;&#9;c-2.678,0-5.519,0.924-8.531,2.76c-3.008,1.841-4.519,4.264-4.519,7.277v78.798c0,1.341,0.752,3.347,2.262,6.024&#10;&#9;&#9;&#9;c1.504,2.68,3.087,4.012,4.764,4.012c6.023,0,10.959-1.754,14.81-5.266c3.84-3.515,6.853-7.949,9.031-13.303&#10;&#9;&#9;&#9;c2.176-5.349,3.593-10.954,4.266-16.812C401.633,316.663,401.972,311.395,401.972,306.707z"/>
		<path fill="#572C87" d="M663.962,332.804c0,10.037-1.345,19.658-4.018,28.861c-2.678,9.207-6.61,17.314-11.795,24.341&#10;&#9;&#9;&#9;c-5.192,7.029-11.793,12.634-19.824,16.815c-8.031,4.186-17.566,6.273-28.611,6.273h-89.335c-2.348,0-4.44-1.167-6.275-3.514&#10;&#9;&#9;&#9;c-1.843-2.337-2.761-4.516-2.761-6.525V86.371c0-2.337,1.256-4.766,3.76-7.276c2.515-2.511,4.936-3.762,7.283-3.762h63.238&#10;&#9;&#9;&#9;c14.054,0,26.264,2.343,36.638,7.024c10.365,4.688,19.07,11.215,26.097,19.572c7.027,8.368,12.215,18.244,15.562,29.613&#10;&#9;&#9;&#9;c3.345,11.382,5.018,23.762,5.018,37.142c0,13.049-2.343,24.929-7.027,35.635c-4.69,10.713-12.719,19.911-24.088,27.605&#10;&#9;&#9;&#9;c5.345,3.684,10.2,8.116,14.553,13.299c4.342,5.192,8.109,10.876,11.291,17.064c3.175,6.198,5.688,12.636,7.531,19.324&#10;&#9;&#9;&#9;c1.835,6.696,2.762,13.223,2.762,19.574V332.804z M598.714,157.642c0-7.355-1.756-14.218-5.273-20.578&#10;&#9;&#9;&#9;c-3.515-6.353-9.459-9.535-17.816-9.535c-2.008,0-4.351,1.089-7.027,3.26c-2.682,2.18-4.017,4.44-4.017,6.777v58.22&#10;&#9;&#9;&#9;c0,2.682,1.504,5.19,4.516,7.527c3.015,2.347,5.849,3.516,8.535,3.516c8.359,0,13.966-2.843,16.816-8.535&#10;&#9;&#9;&#9;c2.834-5.684,4.264-12.208,4.264-19.572V157.642z M600.72,306.707c0-3.679-0.17-8.283-0.502-13.803&#10;&#9;&#9;&#9;c-0.339-5.521-1.256-10.789-2.761-15.81c-1.504-5.02-3.851-9.285-7.027-12.799c-3.182-3.512-7.448-5.268-12.797-5.268&#10;&#9;&#9;&#9;c-2.686,0-5.52,0.924-8.535,2.76c-3.012,1.841-4.516,4.264-4.516,7.277v78.798c0,1.341,0.752,3.347,2.256,6.024&#10;&#9;&#9;&#9;c1.508,2.68,3.093,4.012,4.771,4.012c6.025,0,10.956-1.754,14.805-5.266c3.843-3.515,6.857-7.949,9.035-13.303&#10;&#9;&#9;&#9;c2.173-5.349,3.595-10.954,4.264-16.812C600.383,316.663,600.72,311.395,600.72,306.707z"/>
		<path fill="#572C87" d="M861.704,331.298c0,13.049-2.509,25.52-7.531,37.394c-5.018,11.88-13.045,21.667-24.088,29.361&#10;&#9;&#9;&#9;c1.004,2.008,2.421,4.69,4.264,8.029c1.836,3.343,3.679,6.94,5.522,10.791c1.835,3.843,3.341,7.531,4.515,11.041&#10;&#9;&#9;&#9;c1.169,3.515,1.76,6.275,1.76,8.281c0,2.339-1.504,4.269-4.523,5.773c-3.008,1.506-6.442,2.762-10.283,3.764&#10;&#9;&#9;&#9;c-3.851,1.006-7.614,1.673-11.295,2.008c-3.684,0.331-6.361,0.505-8.031,0.505c-2.01,0-3.762-1.506-5.27-4.519&#10;&#9;&#9;&#9;c-1.504-3.013-3.095-6.449-4.766-10.289c-1.678-3.853-3.512-7.703-5.521-11.546c-2.01-3.849-4.518-6.609-7.531-8.281&#10;&#9;&#9;&#9;c-2.006,0.331-4.014,0.502-6.018,0.502c-2.008,0-4.019,0-6.027,0c-12.384,0-24.675-2.182-36.89-6.525&#10;&#9;&#9;&#9;c-12.217-4.345-22.167-11.872-29.861-22.584c-11.719-16.061-17.568-33.958-17.568-53.706V155.129&#10;&#9;&#9;&#9;c0-25.42,7.692-45.672,23.089-60.728c15.384-15.055,35.799-22.584,61.23-22.584c12.376,0,23.84,1.928,34.382,5.771&#10;&#9;&#9;&#9;c10.539,3.851,19.487,9.457,26.853,16.814c7.353,7.363,13.127,16.148,17.314,26.351c4.184,10.211,6.275,21.669,6.275,34.377&#10;&#9;&#9;&#9;V331.298z M796.457,151.117c0-6.69-1.341-12.462-4.014-17.316c-2.682-4.847-7.866-7.279-15.562-7.279&#10;&#9;&#9;&#9;c-7.7,0-12.884,2.432-15.557,7.279c-2.682,4.853-4.017,10.626-4.017,17.316v184.197c0,6.359,1.421,12.045,4.264,17.064&#10;&#9;&#9;&#9;c2.845,5.018,7.944,7.529,15.31,7.529c7.357,0,12.463-2.423,15.31-7.274c2.837-4.849,4.266-10.622,4.266-17.318V151.117z"/>
	</g>
	<g>
		<path fill="#858584" d="M1019.743,511.486c-4.271-2.131-48.079-34.867-245.073,114.309c65.376-3.534,75.767,4.262,75.767,4.262&#10;&#9;&#9;&#9;l-43.308,68.43c0,0,151.487-83.533,207.206-107.182C1050.807,607.189,1032.811,517.989,1019.743,511.486z"/>
		<path fill="#858584" d="M178.208,1072.488l4.771,27.065c23.122,17.434,49.194,37.593,121.939,36.678&#10;&#9;&#9;&#9;c-30.024-20.095-20.781-34.225-20.781-34.225l65.238-19.553c0,0-156.409-30.331-141.108-91.138&#10;&#9;&#9;&#9;c3.377-18.531-5.771-18.921-18.062-11.71L178.208,1072.488z"/>
		<path fill="#FFFFFF" d="M1093.785,642.731c0,0-28.357,106.509-193.266,179.263c-190.465,84.031-362.841,118.528-562.997,193.266&#10;&#9;&#9;&#9;c-200.161,74.743-152.277,90.314-152.277,90.314s-67.567-65.433-57.794-163.138c11.2-112.04,572.52-221.004,689.54-265.394&#10;&#9;&#9;&#9;c117.016-44.391,188.232-92.998,202.752-165.555C1056.703,527.353,1074.177,600.717,1093.785,642.731z" style="fill: rgb(255, 255, 255);"/>
	</g>
	<g>
		<g>
			<g>
				<path fill-rule="evenodd" clip-rule="evenodd" fill="#7B3014" d="M595.669,546.609c0,0-5.383,24.26-26.524,33.14&#10;&#9;&#9;&#9;&#9;&#9;c-21.146,8.874,8.77,20.426,11.749,20.739c2.985,0.309,34.083-31.645,34.083-31.645L595.669,546.609z"/>
				<path fill-rule="evenodd" clip-rule="evenodd" fill="#7B3014" d="M490.777,575.358c0,0-13.318,0.118-42.398,20.402&#10;&#9;&#9;&#9;&#9;&#9;c-29.079,20.281-4.101,35.839-0.398,36.053c3.703,0.207,52.788-24.012,52.788-24.012L490.777,575.358z"/>
				<path fill-rule="evenodd" clip-rule="evenodd" fill="#7B3014" d="M372.321,587.301c-1.171-0.057-15.124,15.502-54.778,18.191&#10;&#9;&#9;&#9;&#9;&#9;c24.601,28.465,37.716,30.278,39.565,30.382c1.845,0.104,23.678-24.654,23.678-24.654L372.321,587.301z"/>
			</g>
			<g>
				<g>
					<path fill="#EF7C1D" d="M759.419,587.856c0,0-83.577,87.907-262.814,118.071c-196.791,33.115-278.018-12.422-324.013-45.357&#10;&#9;&#9;&#9;&#9;&#9;&#9;c0,0-48.353-37.294-27.181-87.068c0,0,21.076-51.36,93.387-18.074c30.573,16.64,86.911,21.551,96.847,23.379&#10;&#9;&#9;&#9;&#9;&#9;&#9;c5.294,8.922,10.477,22.688,15.661,30.833c5.188,8.139,15.14-12.632,21.015-22.338c5.891-9.702,40.215-12.145,52.182-13.034&#10;&#9;&#9;&#9;&#9;&#9;&#9;c11.969-0.888,37.273-4.472,38.284,2.635c1.004,7.116,10.571,29.147,10.571,29.147s2.057-19.646,17.419-30.691&#10;&#9;&#9;&#9;&#9;&#9;&#9;c15.369-11.043,72.955-20.013,72.955-20.013s15.462,12.316,18.61,23.164c3.146,10.846,17.616-3.468,11.838-21.171&#10;&#9;&#9;&#9;&#9;&#9;&#9;c-4.264-13.087,14.227-18.928,14.227-18.928s43.899-29.492,57.58-46.745c13.677-17.258,69.494-50.167,107.725-13.653&#10;&#9;&#9;&#9;&#9;&#9;&#9;C811.945,514.517,781.34,563.732,759.419,587.856z"/>
					<path fill="#DE4621" d="M776.044,555.151c1.934-2.055-88.869,113.311-302.068,145.419&#10;&#9;&#9;&#9;&#9;&#9;&#9;c-198.275,30.009-286.479-35.462-304.699-49.986c26.609,13.336,165.146,29.927,312.033-0.4&#10;&#9;&#9;&#9;&#9;&#9;&#9;C630.326,621.46,755.384,577.099,776.044,555.151z"/>
					<path fill="#FAC7A5" d="M782.37,541.815c0,0,9.762-38.464-14.176-59.785c-23.942-21.328-54.309-14.187-75.758,2.173&#10;&#9;&#9;&#9;&#9;&#9;&#9;c-21.449,16.356-64.757,52.922-85.145,63.414c4.121,2.271,32.861-6.626,50.554-20.231&#10;&#9;&#9;&#9;&#9;&#9;&#9;C715.37,483.132,762.445,477.111,782.37,541.815z"/>
					<path fill="#FAC7A5" d="M559.612,566.782c0,0,10.117-9.083-8.26-4.578c-18.375,4.51-53.271,13.255-58.999,19.765&#10;&#9;&#9;&#9;&#9;&#9;&#9;c-5.743,6.525-6.421,21.832-6.421,21.832S509.146,566.325,559.612,566.782z"/>
					<path fill="#FAC7A5" d="M447.492,582.018c0,0,17.435-5.66,0.398-5.15c-17.047,0.515-53.26,6.601-58.063,6.328&#10;&#9;&#9;&#9;&#9;&#9;&#9;c-4.792-0.284-15.458,11.69-21.057,19.14C392.231,586.664,437.095,589.028,447.492,582.018z"/>
					<path fill="#FAC7A5" d="M330.18,584.992c0,0-54.979-5.514-82.255-16.869c-27.285-11.346-68.405-26.446-94.137,0.027&#10;&#9;&#9;&#9;&#9;&#9;&#9;c-18.796,21.692-2.845,46.995-2.845,46.995s-7.414-38.883,37.591-43.366c20.635-2.044,38.47,9.776,49.386,12.973&#10;&#9;&#9;&#9;&#9;&#9;&#9;C237.919,584.753,301.706,605.884,330.18,584.992z"/>
				</g>
				<path fill="#D3762E" d="M497.969,691.957c0,0,22.769,82.431,30.128,123.011c8.296,45.742-3.097,79.268-24.853,85.054&#10;&#9;&#9;&#9;&#9;&#9;c2.873,26.692,43.554,246.483,43.554,246.483l-13.5-2.055l-48.664-241.791c0,0-39.106-7.338-46.872-74.886&#10;&#9;&#9;&#9;&#9;&#9;c-7.775-67.557-2.797-125.64-2.797-125.64s8.096-0.248,10.762-0.627c2.652-0.373,10.247,98.827,14.018,125.397&#10;&#9;&#9;&#9;&#9;&#9;c3.764,26.571,10.926,47.945,29.403,44.592c27.946-5.082,17.153-52.312,17.153-52.312l-20.085-125.208L497.969,691.957z"/>
			</g>
		</g>
	</g>
	<g>
		<path fill="#572C87" d="M240.859,910.219c0.273,1.559,0.53,3.146,0.777,4.768c1.26,5.916,2.299,11.941,3.12,18.076&#10;&#9;&#9;&#9;c0.203,1.534,0.505,3.535,0.898,6.012c0.392,2.479,0.83,5.04,1.305,7.692c0.485,2.652,1.016,5.194,1.608,7.628&#10;&#9;&#9;&#9;c0.587,2.432,1.207,4.309,1.851,5.627l17.013,34.805c0.521,1.057,0.487,1.892-0.082,2.495c-0.578,0.608-1.305,1.125-2.182,1.555&#10;&#9;&#9;&#9;l-9.755,4.771c-0.879,0.422-1.703,0.638-2.47,0.629c-0.765-0.008-1.381-0.495-1.858-1.457l-17.011-34.805&#10;&#9;&#9;&#9;c-0.599-1.231-1.676-2.804-3.207-4.722c-1.534-1.917-3.205-3.879-5.001-5.887c-1.799-2.004-3.576-3.915-5.332-5.726&#10;&#9;&#9;&#9;c-1.756-1.807-3.129-3.286-4.125-4.434c-0.525-0.617-1.777-2.014-3.771-4.201c-1.995-2.182-4.084-4.51-6.27-6.982&#10;&#9;&#9;&#9;c-2.186-2.468-4.19-4.729-6.01-6.779c-1.818-2.051-2.835-3.294-3.051-3.737c-0.345-0.703-0.243-1.326,0.312-1.869&#10;&#9;&#9;&#9;c0.553-0.54,1.044-0.917,1.483-1.135l10.289-5.025c0.523-0.256,1.366,0.066,2.517,0.974c1.148,0.907,2.404,2.144,3.768,3.707&#10;&#9;&#9;&#9;c1.364,1.568,2.828,3.33,4.385,5.292c1.559,1.962,3.031,3.858,4.41,5.684c1.39,1.83,2.654,3.472,3.798,4.923&#10;&#9;&#9;&#9;c1.146,1.456,2.072,2.449,2.767,2.979c0.006-1.312-0.407-3.612-1.259-6.902c-0.843-3.288-1.718-6.7-2.627-10.232&#10;&#9;&#9;&#9;c-0.911-3.527-1.593-6.709-2.05-9.533c-0.456-2.826-0.239-4.453,0.636-4.887l10.285-5.025c0.528-0.259,1.174-0.381,1.942-0.375&#10;&#9;&#9;&#9;c0.765,0.008,1.322,0.36,1.661,1.066l0.195,0.394C240.245,907.117,240.593,908.664,240.859,910.219z"/>
		<path fill="#572C87" d="M320.428,950.265c1.424,3.438,2.133,6.766,2.142,9.991c0.013,3.228-0.595,6.232-1.826,9.016&#10;&#9;&#9;&#9;c-1.233,2.788-3.033,5.279-5.406,7.473c-2.377,2.199-5.237,3.991-8.581,5.372c-3.438,1.422-7.027,2.216-10.764,2.385&#10;&#9;&#9;&#9;c-3.743,0.174-7.253-0.761-10.522-2.794c-4.963-3.033-8.543-7.217-10.746-12.554l-19.674-47.607&#10;&#9;&#9;&#9;c-2.841-6.87-3.023-13.202-0.547-18.987c2.481-5.788,7.15-10.103,14.028-12.941c3.345-1.385,6.654-2.141,9.933-2.282&#10;&#9;&#9;&#9;c3.277-0.138,6.323,0.379,9.139,1.544c2.805,1.169,5.347,2.898,7.614,5.188c2.273,2.292,4.116,5.154,5.538,8.59L320.428,950.265z&#10;&#9;&#9;&#9; M282.677,908.863c-0.748-1.809-1.752-3.218-3.017-4.233c-1.269-1.01-2.945-1.087-5.019-0.227&#10;&#9;&#9;&#9;c-2.082,0.858-3.211,2.093-3.394,3.705c-0.187,1.61,0.104,3.32,0.847,5.127l20.572,49.776c0.71,1.718,1.731,3.093,3.061,4.135&#10;&#9;&#9;&#9;c1.324,1.04,2.985,1.146,4.974,0.324c1.987-0.822,3.095-2.048,3.326-3.677c0.224-1.627-0.032-3.347-0.784-5.156L282.677,908.863z"/>
		<path fill="#572C87" d="M373.74,942.484c-0.239,3.05-1.042,5.868-2.398,8.44c-1.351,2.576-3.203,4.859-5.546,6.857&#10;&#9;&#9;&#9;c-2.347,1.998-5.084,3.563-8.209,4.701c-3.125,1.138-6.241,1.667-9.334,1.597c-3.099-0.07-6.001-0.682-8.709-1.833&#10;&#9;&#9;&#9;c-2.707-1.148-5.112-2.828-7.211-5.031c-2.106-2.201-3.737-4.911-4.911-8.129l-24.709-68.003c-0.869-2.39-0.108-4.02,2.282-4.887&#10;&#9;&#9;&#9;l10.208-3.712c0.918-0.335,1.777-0.411,2.572-0.231c0.792,0.18,1.375,0.775,1.744,1.788l23.809,65.516&#10;&#9;&#9;&#9;c0.362,1.013,0.788,2.108,1.273,3.286c0.479,1.18,1.049,2.192,1.727,3.04c0.669,0.852,1.512,1.455,2.529,1.811&#10;&#9;&#9;&#9;c1.017,0.364,2.216,0.29,3.597-0.212c1.279-0.466,2.156-1.146,2.612-2.04c0.453-0.894,0.648-1.872,0.57-2.942&#10;&#9;&#9;&#9;c-0.074-1.063-0.299-2.178-0.669-3.347c-0.373-1.165-0.727-2.21-1.059-3.127l-23.906-65.793c-0.371-1.012-0.282-1.849,0.256-2.514&#10;&#9;&#9;&#9;c0.538-0.666,1.224-1.151,2.05-1.449l10.622-3.856c2.207-0.805,3.679-0.193,4.414,1.83l25.006,68.826&#10;&#9;&#9;&#9;C373.524,936.292,373.979,939.427,373.74,942.484z"/>
		<path fill="#572C87" d="M430.195,933.746c0.244,0.741,0.17,1.385-0.214,1.922c-0.394,0.542-0.913,0.919-1.559,1.133l-13.937,4.588&#10;&#9;&#9;&#9;c-0.561-0.434-1.138-1.169-1.735-2.207c-0.6-1.042-1.167-2.141-1.703-3.302c-0.538-1.161-1.047-2.307-1.521-3.438&#10;&#9;&#9;&#9;c-0.477-1.131-0.824-2.023-1.034-2.673l-6.241-18.957c-0.555-1.674-1.663-3.161-3.332-4.468c-1.661-1.305-3.425-1.653-5.281-1.04&#10;&#9;&#9;&#9;c-1.026,0.339-1.877,0.955-2.564,1.847c-0.682,0.898-0.852,1.854-0.521,2.875l10.747,32.619c0.339,1.023,0.243,1.849-0.265,2.481&#10;&#9;&#9;&#9;c-0.517,0.633-1.239,1.102-2.165,1.411l-10.594,3.485c-2.229,0.737-3.712-0.011-4.442-2.241l-28.329-86.005&#10;&#9;&#9;&#9;c-0.339-1.019-0.256-1.949,0.244-2.782c0.495-0.833,1.252-1.419,2.277-1.756l16.731-5.51c8.73-2.876,15.756-2.662,21.063,0.633&#10;&#9;&#9;&#9;c5.306,3.301,9.357,9.177,12.143,17.634c1.315,3.995,1.794,7.959,1.443,11.884c-0.356,3.928-1.822,7.605-4.402,11.028&#10;&#9;&#9;&#9;c4.419,1.223,7.83,3.216,10.234,5.978c2.402,2.765,4.294,6.234,5.671,10.416l4.684,14.219c0.4,1.207,0.826,2.351,1.284,3.438&#10;&#9;&#9;&#9;c0.464,1.085,0.968,2.154,1.521,3.205c0.307,0.625,0.629,1.212,0.968,1.767C429.704,932.49,429.986,933.095,430.195,933.746z&#10;&#9;&#9;&#9; M391.257,875.572c-0.394-1.199-0.917-2.487-1.58-3.857c-0.657-1.371-1.453-2.542-2.387-3.512&#10;&#9;&#9;&#9;c-0.943-0.97-2.025-1.692-3.267-2.152c-1.23-0.466-2.637-0.441-4.215,0.082c-0.744,0.246-1.322,0.846-1.727,1.794&#10;&#9;&#9;&#9;c-0.407,0.958-0.489,1.801-0.25,2.54l6.031,18.298c0.335,1.017,0.973,1.703,1.915,2.061c0.941,0.352,1.875,0.379,2.809,0.072&#10;&#9;&#9;&#9;c1.481-0.491,2.529-1.371,3.141-2.648c0.604-1.279,0.926-2.663,0.951-4.156c0.021-1.489-0.117-3.006-0.422-4.546&#10;&#9;&#9;&#9;C391.958,878.009,391.628,876.683,391.257,875.572z"/>
	</g>
	<g>
		<path fill="#572C87" d="M594.502,801.103c-0.337,0.695-0.905,1.157-1.709,1.379l-13.278,3.707&#10;&#9;&#9;&#9;c-1.205,0.341-2.102,0.992-2.676,1.947c-0.578,0.968-0.701,1.995-0.36,3.099l4.137,13.475c0.341,1.095,0.949,1.925,1.824,2.474&#10;&#9;&#9;&#9;c0.873,0.544,1.96,0.644,3.267,0.282l11.424-3.182c0.803-0.226,1.576-0.193,2.313,0.095c0.745,0.295,1.222,0.803,1.447,1.534&#10;&#9;&#9;&#9;l2.991,9.857c0.25,0.82,0.125,1.572-0.375,2.254c-0.502,0.676-1.195,1.14-2.097,1.394l-11.995,3.33&#10;&#9;&#9;&#9;c-1.004,0.278-1.629,0.892-1.872,1.852c-0.256,0.955-0.267,1.796-0.042,2.521l10.219,33.282c0.225,0.716,0.154,1.371-0.206,1.951&#10;&#9;&#9;&#9;c-0.358,0.591-0.938,0.989-1.726,1.203l-12.799,3.531c-0.79,0.216-1.564,0.136-2.328-0.235c-0.761-0.373-1.254-0.913-1.477-1.635&#10;&#9;&#9;&#9;l-26.387-84.918c-0.261-0.833-0.104-1.65,0.46-2.464c0.572-0.811,1.307-1.343,2.214-1.599l32.041-8.976&#10;&#9;&#9;&#9;c0.908-0.254,1.767-0.216,2.58,0.11c0.807,0.326,1.343,0.902,1.595,1.735l2.985,9.847&#10;&#9;&#9;&#9;C594.901,799.692,594.843,800.412,594.502,801.103z"/>
		<path fill="#572C87" d="M671.877,859.64c0.311,0.695,0.265,1.341-0.148,1.947c-0.411,0.606-1.023,1.017-1.811,1.248l-13.46,3.798&#10;&#9;&#9;&#9;c-1.595,0.449-2.792-0.019-3.591-1.407c-0.803-1.381-1.531-2.964-2.177-4.739c-0.646-1.773-1.4-3.347-2.248-4.722&#10;&#9;&#9;&#9;c-0.858-1.377-2.133-1.828-3.828-1.348l-5.989,1.695c-1.79,0.506-2.665,1.563-2.604,3.165c0.059,1.599,0.341,3.307,0.847,5.116&#10;&#9;&#9;&#9;c0.5,1.82,0.807,3.51,0.911,5.095c0.108,1.578-0.631,2.593-2.22,3.04l-12.818,3.614c-0.9,0.256-1.629,0.167-2.19-0.256&#10;&#9;&#9;&#9;c-0.564-0.424-0.911-1.013-1.034-1.754l-0.165-0.54c-1.792-7.501-3.177-15.096-4.158-22.779c-0.978-7.7-2.156-15.365-3.544-22.995&#10;&#9;&#9;&#9;c-1.057-5.857-1.993-11.708-2.817-17.555c-0.828-5.86-1.455-11.793-1.885-17.79c-0.087-0.279-0.17-0.985-0.248-2.118&#10;&#9;&#9;&#9;c-0.072-1.131-0.087-2.332-0.038-3.607c0.038-1.273,0.127-2.428,0.242-3.472c0.118-1.04,0.335-1.604,0.629-1.692l21.218-6.089&#10;&#9;&#9;&#9;c0.303-0.085,0.807,0.299,1.508,1.163c0.697,0.858,1.409,1.837,2.127,2.942c0.722,1.106,1.375,2.171,1.964,3.214&#10;&#9;&#9;&#9;c0.589,1.04,0.979,1.684,1.161,1.93c2.995,5.175,5.823,10.435,8.482,15.778c2.65,5.336,5.239,10.732,7.762,16.178&#10;&#9;&#9;&#9;c3.362,7.182,6.863,14.259,10.49,21.22c3.61,6.951,6.796,14.102,9.552,21.451L671.877,859.64z M640.207,835.734l-16.163-38.974&#10;&#9;&#9;&#9;l7.929,41.904l0.087,0.273c0.199,1.027,0.879,1.548,2.03,1.574c1.142,0.017,2.114-0.091,2.919-0.316&#10;&#9;&#9;&#9;c1.102-0.312,2.036-0.799,2.809-1.459c0.78-0.674,0.936-1.576,0.475-2.726L640.207,835.734z"/>
		<path fill="#572C87" d="M701.214,782.588c1.102,7.87,2.25,15.718,3.459,23.554c0.841,5.936,1.725,11.818,2.653,17.648&#10;&#9;&#9;&#9;c0.919,5.821,1.593,11.729,2.031,17.718c-0.017,0.301,0.021,0.955,0.117,1.959c0.087,1.006,0.131,2.102,0.116,3.288&#10;&#9;&#9;&#9;c-0.01,1.184-0.097,2.241-0.246,3.167c-0.146,0.928-0.422,1.453-0.82,1.57l-19.432,5.747c-0.398,0.112-0.93-0.193-1.597-0.928&#10;&#9;&#9;&#9;c-0.666-0.741-1.309-1.578-1.934-2.523c-0.623-0.945-1.193-1.883-1.699-2.813c-0.515-0.934-0.866-1.521-1.046-1.763&#10;&#9;&#9;&#9;c-2.858-5.258-5.563-10.558-8.114-15.884c-2.557-5.342-5.141-10.757-7.749-16.252c-2.417-4.87-4.716-9.726-6.906-14.581&#10;&#9;&#9;&#9;c-2.195-4.858-4.349-9.747-6.45-14.653c-0.754-1.686-1.447-3.349-2.07-4.976c-0.627-1.631-1.305-3.243-2.029-4.847&#10;&#9;&#9;&#9;c-0.333-0.712-0.676-1.422-1.004-2.129c-0.339-0.711-0.62-1.432-0.86-2.173c-0.259-0.837-0.199-1.691,0.186-2.561&#10;&#9;&#9;&#9;c0.388-0.881,1.081-1.468,2.093-1.775l12.115-3.635c0.712-0.216,1.553,0.271,2.531,1.445c0.977,1.18,2.004,2.771,3.07,4.779&#10;&#9;&#9;&#9;c1.069,2.01,2.158,4.237,3.256,6.686c1.095,2.449,2.078,4.802,2.951,7.063c0.866,2.256,1.64,4.29,2.311,6.099&#10;&#9;&#9;&#9;c0.676,1.805,1.178,3.061,1.511,3.767c1.447,3.578,2.889,7.131,4.319,10.654c1.426,3.521,2.909,7.041,4.453,10.571&#10;&#9;&#9;&#9;c0.771,1.764,1.534,3.599,2.294,5.51c0.761,1.909,1.62,3.712,2.593,5.411c-0.044-1.877-0.32-3.826-0.841-5.857&#10;&#9;&#9;&#9;c-0.53-2.03-0.974-3.985-1.339-5.868c-0.737-3.762-1.512-7.503-2.337-11.202c-0.828-3.705-1.654-7.437-2.495-11.204&#10;&#9;&#9;&#9;c-0.53-2.051-1.097-4.396-1.699-7.031c-0.597-2.642-1.152-5.324-1.673-8.039c-0.519-2.725-0.909-5.415-1.178-8.069&#10;&#9;&#9;&#9;c-0.278-2.65-0.345-5.01-0.214-7.076c0.087-0.43,0.18-1.044,0.267-1.836c0.085-0.784,0.381-1.256,0.888-1.409l11.704-3.515&#10;&#9;&#9;&#9;c1.007-0.303,1.909-0.345,2.695-0.123c0.79,0.22,1.288,0.858,1.502,1.911l0.172,0.56&#10;&#9;&#9;&#9;C698.632,766.825,700.115,774.701,701.214,782.588z"/>
		<path fill="#572C87" d="M775.172,807.632c1.119,3.444,1.494,6.747,1.136,9.901c-0.36,3.152-1.348,6.054-2.968,8.704&#10;&#9;&#9;&#9;c-1.617,2.655-3.801,4.987-6.558,7.004c-2.75,2.013-5.97,3.607-9.654,4.781c-3.79,1.203-7.658,1.786-11.624,1.758&#10;&#9;&#9;&#9;c-3.97-0.023-7.573-1.108-10.817-3.247c-4.912-3.203-8.255-7.461-10.026-12.776l-15.958-47.88&#10;&#9;&#9;&#9;c-2.321-6.978-1.868-13.291,1.388-18.943c3.26-5.656,8.728-9.73,16.407-12.21c3.737-1.208,7.381-1.794,10.912-1.761&#10;&#9;&#9;&#9;c3.536,0.042,6.752,0.716,9.635,2.038c2.887,1.318,5.414,3.186,7.601,5.603c2.169,2.415,3.826,5.375,4.965,8.88L775.172,807.632z&#10;&#9;&#9;&#9; M739.574,764.715c-0.602-1.837-1.523-3.303-2.769-4.379c-1.241-1.076-3.027-1.241-5.343-0.496&#10;&#9;&#9;&#9;c-2.326,0.752-3.665,1.926-4.029,3.517c-0.37,1.597-0.248,3.315,0.36,5.156l16.528,50.161c0.564,1.718,1.495,3.118,2.786,4.201&#10;&#9;&#9;&#9;c1.296,1.079,3.038,1.273,5.234,0.572c2.193-0.697,3.504-1.837,3.928-3.417c0.415-1.581,0.331-3.275-0.26-5.082L739.574,764.715z"/>
		<path fill="#572C87" d="M842.814,804.903c0.256,0.718,0.169,1.354-0.246,1.906c-0.417,0.549-0.981,0.947-1.673,1.197&#10;&#9;&#9;&#9;l-14.899,5.289c-0.589-0.398-1.201-1.087-1.839-2.069c-0.633-0.981-1.231-2.027-1.803-3.135c-0.565-1.11-1.104-2.203-1.606-3.294&#10;&#9;&#9;&#9;c-0.502-1.076-0.869-1.932-1.091-2.568l-6.62-18.328c-0.589-1.627-1.769-3.036-3.555-4.237c-1.781-1.195-3.671-1.441-5.664-0.725&#10;&#9;&#9;&#9;c-1.098,0.392-2.013,1.053-2.743,1.976c-0.741,0.926-0.926,1.888-0.564,2.875l11.424,31.475c0.356,0.983,0.262,1.801-0.288,2.447&#10;&#9;&#9;&#9;c-0.549,0.648-1.318,1.148-2.307,1.495l-11.278,4.008c-2.374,0.843-3.955,0.195-4.741-1.938l-30.649-83.59&#10;&#9;&#9;&#9;c-0.371-1.007-0.29-1.941,0.242-2.809c0.536-0.873,1.354-1.504,2.453-1.9l18.076-6.531c9.452-3.415,17.064-3.61,22.809-0.589&#10;&#9;&#9;&#9;c5.739,3.019,10.096,8.707,13.079,17.038c1.4,3.932,1.9,7.876,1.504,11.823c-0.404,3.944-1.989,7.694-4.779,11.253&#10;&#9;&#9;&#9;c4.749,0.966,8.401,2.75,10.971,5.355c2.568,2.606,4.574,5.94,6.025,10.003l4.923,13.774c0.417,1.171,0.86,2.275,1.348,3.317&#10;&#9;&#9;&#9;c0.485,1.036,1.019,2.063,1.604,3.065c0.32,0.596,0.661,1.153,1.017,1.682C842.297,803.7,842.594,804.278,842.814,804.903z&#10;&#9;&#9;&#9; M801.294,749.458c-0.423-1.176-0.991-2.434-1.699-3.771c-0.714-1.335-1.572-2.466-2.58-3.383&#10;&#9;&#9;&#9;c-1.017-0.921-2.186-1.578-3.518-1.978c-1.337-0.39-2.86-0.278-4.561,0.333c-0.805,0.29-1.428,0.928-1.862,1.904&#10;&#9;&#9;&#9;c-0.439,0.983-0.525,1.833-0.26,2.559l6.509,17.947c0.362,0.994,1.049,1.64,2.065,1.94c1.008,0.301,2.015,0.267,3.017-0.091&#10;&#9;&#9;&#9;c1.602-0.574,2.725-1.506,3.385-2.815c0.655-1.315,0.996-2.709,1.023-4.199c0.026-1.495-0.121-3.001-0.443-4.52&#10;&#9;&#9;&#9;C802.039,751.86,801.69,750.553,801.294,749.458z"/>
		<path fill="#572C87" d="M872.609,794.387c-0.224,0.854-0.828,1.481-1.813,1.866l-12.687,5.023&#10;&#9;&#9;&#9;c-0.894,0.352-1.726,0.326-2.518-0.078c-0.788-0.403-1.326-0.956-1.608-1.667l-33.462-82.694&#10;&#9;&#9;&#9;c-0.398-1.002-0.477-1.968-0.227-2.919c0.261-0.947,0.928-1.644,2.023-2.08l11.971-4.82c1.095-0.44,2.104-0.447,3.027-0.027&#10;&#9;&#9;&#9;c0.919,0.424,1.584,1.133,1.987,2.135l33.172,82.779C872.796,792.703,872.834,793.527,872.609,794.387z"/>
		<path fill="#572C87" d="M895.386,696.886c-0.332,0.697-0.836,1.271-1.515,1.748c-0.678,0.468-1.445,0.875-2.299,1.214&#10;&#9;&#9;&#9;c-0.858,0.337-1.631,0.663-2.313,0.977c-1.085,0.498-2.078,1.11-2.985,1.852c-0.909,0.737-1.072,1.731-0.502,2.974l31.151,67.613&#10;&#9;&#9;&#9;c0.443,0.955,0.334,1.815-0.314,2.578c-0.639,0.763-1.402,1.343-2.279,1.735l-10.768,4.856c-0.966,0.438-1.972,0.553-3.01,0.337&#10;&#9;&#9;&#9;c-1.036-0.212-1.78-0.79-2.214-1.748l-31.087-66.897c-0.576-1.241-1.559-1.705-2.955-1.387c-1.404,0.318-2.851,0.765-4.36,1.35&#10;&#9;&#9;&#9;c-1.506,0.582-2.972,1.008-4.385,1.277c-1.417,0.273-2.438-0.256-3.055-1.589l-3.983-8.527c-0.498-1.065-0.502-2.033-0.023-2.904&#10;&#9;&#9;&#9;c0.489-0.875,1.269-1.553,2.347-2.05l35.36-16.235c1.086-0.498,2.063-0.642,2.925-0.447c0.864,0.199,1.527,0.793,1.981,1.777&#10;&#9;&#9;&#9;l4.177,9.118C895.69,695.399,895.726,696.189,895.386,696.886z"/>
		<path fill="#572C87" d="M983.427,740.554c-0.176,0.763-0.642,1.354-1.39,1.775l-33.138,18.587&#10;&#9;&#9;&#9;c-0.841,0.468-1.735,0.476-2.69,0.023c-0.951-0.458-1.627-1.011-2.021-1.674l-45.673-76.925c-0.555-0.932-0.711-1.894-0.479-2.879&#10;&#9;&#9;&#9;c0.237-0.989,0.869-1.777,1.904-2.373l31.484-17.985c0.854-0.489,1.724-0.672,2.616-0.555c0.896,0.112,1.561,0.561,2.016,1.326&#10;&#9;&#9;&#9;l5.315,9.084c0.396,0.689,0.506,1.419,0.333,2.194c-0.176,0.782-0.644,1.388-1.4,1.82l-13.899,7.916&#10;&#9;&#9;&#9;c-1.04,0.595-1.747,1.481-2.122,2.656c-0.379,1.178-0.297,2.233,0.26,3.161l7.315,12.422c1.394,2.362,3.408,2.788,6.048,1.294&#10;&#9;&#9;&#9;l11.882-6.741c1.885-1.07,3.381-0.675,4.466,1.178l4.737,8.092c0.542,0.928,0.716,1.811,0.515,2.65&#10;&#9;&#9;&#9;c-0.197,0.841-0.816,1.555-1.853,2.141l-12.71,7.184c-0.941,0.53-1.4,1.354-1.373,2.455c0.017,1.102,0.233,1.987,0.621,2.654&#10;&#9;&#9;&#9;l9.304,15.776c1.375,2.328,3.281,2.809,5.718,1.434l14.655-8.24c0.843-0.475,1.697-0.568,2.555-0.276&#10;&#9;&#9;&#9;c0.856,0.292,1.485,0.771,1.87,1.441l4.819,8.243C983.501,739.082,983.605,739.79,983.427,740.554z"/>
	</g>
</g>
</svg>