<svg version="1.0" id="Capa_1" xmlns="http://www.w3.org/2000/svg" xmlns:xlink="http://www.w3.org/1999/xlink" x="0px" y="0px" width="1200px" height="1200px" viewBox="0 0 1200 1200" enable-background="new 0 0 1200 1200" xml:space="preserve">
<g>
	<path fill="#333342" d="M1104.681,387.198h-41.944c-9.513,0-17.203,7.621-17.427,17.074l-83.417,39.71v-11.325H599.999H238.119&#10;&#9;&#9;v11.313l-83.407-39.698c-0.223-9.453-7.913-17.074-17.438-17.074H95.33c-9.665,0-17.485,7.832-17.485,17.486&#10;&#9;&#9;c0,9.665,7.82,17.497,17.485,17.497h41.944c1.634,0,3.198-0.306,4.703-0.717l96.141,45.742v19.649l35.665,80.431h138.508&#10;&#9;&#9;l-23.882,143.706h-88.92l2.904,19.814c16.122,25.881,40.357,43.119,65.097,43.119h10.466l-47.906,288.329h-9.267v-44.589&#10;&#9;&#9;c0-5.774-4.703-10.477-10.5-10.477H284.06c-5.796,0-10.489,4.703-10.489,10.477v110.146c0,5.797,4.693,10.501,10.489,10.501h26.223&#10;&#9;&#9;c5.797,0,10.5-4.705,10.5-10.501v-44.579h5.774l-2.574,15.534l20.707,3.457l3.151-18.991h240.576v30.82h23.165v-30.82h240.623&#10;&#9;&#9;l3.163,18.991l20.684-3.457l-2.588-15.534h5.786v44.579c0,5.797,4.703,10.501,10.489,10.501h26.234&#10;&#9;&#9;c5.786,0,10.489-4.705,10.489-10.501v-110.146c0-5.774-4.703-10.477-10.489-10.477h-26.234c-5.786,0-10.489,4.703-10.489,10.477&#10;&#9;&#9;v44.589h-9.254l-47.918-288.329h10.465c24.741,0,48.964-17.238,65.074-43.119l2.904-19.814h-88.897l-23.87-143.706h138.461&#10;&#9;&#9;l35.677-80.431v-19.637l96.153-45.754c1.493,0.411,3.045,0.717,4.691,0.717h41.944c9.655,0,17.474-7.832,17.474-17.497&#10;&#9;&#9;C1122.155,395.03,1114.335,387.198,1104.681,387.198z M687.204,502.06c0-6.102,4.397-11.042,9.83-11.042&#10;&#9;&#9;c5.421,0,9.842,4.939,9.842,11.042v11.794c0,6.102-4.422,11.042-9.842,11.042c-5.433,0-9.83-4.939-9.83-11.042V502.06z&#10;&#9;&#9; M638.24,492.723c0-6.361,4.597-11.547,10.277-11.547c5.668,0,10.265,5.186,10.265,11.547v32.454&#10;&#9;&#9;c0,6.373-4.597,11.547-10.265,11.547c-5.68,0-10.277-5.174-10.277-11.547V492.723z M589.288,492.723&#10;&#9;&#9;c0-6.361,4.597-11.547,10.289-11.547c5.668,0,10.265,5.186,10.265,11.547v32.454c0,6.373-4.597,11.547-10.265,11.547&#10;&#9;&#9;c-5.692,0-10.289-5.174-10.289-11.547V492.723z M540.346,492.723c0-6.361,4.586-11.547,10.277-11.547&#10;&#9;&#9;c5.657,0,10.254,5.186,10.254,11.547v32.454c0,6.373-4.597,11.547-10.254,11.547c-5.691,0-10.277-5.174-10.277-11.547V492.723z&#10;&#9;&#9; M493.134,502.06c0-6.102,4.409-11.042,9.842-11.042c5.421,0,9.83,4.939,9.83,11.042v11.794c0,6.102-4.409,11.042-9.83,11.042&#10;&#9;&#9;c-5.433,0-9.842-4.939-9.842-11.042V502.06z M433.54,567.287h154.877v143.706H409.681L433.54,567.287z M351.322,1062.255&#10;&#9;&#9;l47.894-288.329h189.201v288.329H351.322z M848.725,1062.255H611.582V773.926h189.225L848.725,1062.255z M790.365,710.993H611.582&#10;&#9;&#9;V567.287h154.901L790.365,710.993z" style="fill: rgb(0, 0, 0);"/>
	<path fill="#333342" d="M947.499,390.115c-18.144-130.359-134.088-235.037-283.355-258.695l8.513-38.275h16.498&#10;&#9;&#9;c5.798,0,10.501-4.692,10.501-10.478V72.177c0-5.785-4.703-10.489-10.501-10.489H510.843c-5.796,0-10.489,4.705-10.489,10.489&#10;&#9;&#9;v10.489c0,5.786,4.693,10.478,10.489,10.478h16.498l8.514,38.275c-149.256,23.658-265.211,128.337-283.344,258.695h-18.99v17.921&#10;&#9;&#9;h17.062h698.844h17.051v-17.921H947.499z M653.714,129.937c-17.532-2.317-35.441-3.551-53.714-3.551&#10;&#9;&#9;c-18.262,0-36.182,1.234-53.714,3.551l-8.172-36.793h123.762L653.714,129.937z M788.719,241.658&#10;&#9;&#9;c-11.207,14.782-36.066,14.794-55.49,0.024c-19.438-14.758-26.093-38.675-14.876-53.467c11.219-14.758,36.076-14.77,55.49-0.024&#10;&#9;&#9;C793.281,202.924,799.936,226.878,788.719,241.658z" style="fill: rgb(0, 0, 0);"/>
</g>
</svg>